<svg xmlns="http://www.w3.org/2000/svg" height="40" viewBox="0 -960 960 960" width="40"><path fill="white" d="M324-16q-128.666 0-218.666-90.828T15.334-327q0-128.334 91.333-217.334t220.333-89H330.334l21-37q13-23 38-29.333 25-6.333 47.999 6.666l33.668 19.334 6.666-12q26.667-43.333 74.167-56Q599.334-754.333 644-730l36 20.666-41.666 72.667-36.667-20.667q-14-7.667-29.167-4-15.167 3.667-23.167 18l-6 11L585.667-608q23.196 14.333 29.432 39.333 6.235 25-7.432 47.999L588-485.334q22 37 33.333 77.283 11.334 40.282 11.334 83.051 0 129.333-90 219.166Q452.667-16 324-16Zm.334-84q92.611 0 158.472-66.016 65.862-66.016 65.862-158.845 0-31.139-9.167-61.806-9.167-30.667-26.5-58.667L489.334-483l38-62.001-112.667-65-37.334 61h-58.666q-91.667 0-156 67Q98.333-415 98.333-327q0 94.546 66.068 160.773Q230.469-100 324.334-100Zm498.333-506.334v-83.999h123.999v83.999H822.667ZM578.334-832.001V-956h83.999v123.999h-83.999ZM795-752.334 736-811l88-88.666L883.666-840 795-752.334ZM324.334-325Z"/></svg>