<svg xmlns="http://www.w3.org/2000/svg" height="40" viewBox="0 -960 960 960" width="40"><path fill="white" d="M480-28 286.667-220.333l77-77 63 64.001v-152.001h105.999v151.667l64.334-63 76.333 76.333L480-28ZM217-290.001 28-480l189.333-190.333 76 76-60.001 61.667h152.001v105.999H233.666l60 60L217-290.001Zm526 0L666.667-367l60.667-59.667h-152v-105.999h151.667l-60.334-61.001L743-669.999 931.999-480 743-290.001ZM426.667-575.334v-152L366-666.667 290.001-743 480-931.999 669.999-743 594-667.001l-61.334-60.333v152H426.667Z"/></svg>