<svg xmlns="http://www.w3.org/2000/svg" height="40" viewBox="0 -960 960 960" width="40"><path fill="white" d="M196.667-293.667q-30-42-43.5-88.667-13.5-46.666-13.5-97.666 0-137.667 98-237.5T470.334-819h31l-60.667-61.333 54.666-54.333 168.666 168.333-168.666 168.666L440.001-652l61-60.667h-27.334q-93 1-160.501 69.667-67.5 68.666-67.5 163 0 31.333 7 59.667 7 28.333 19.333 51.333l-75.332 75.333ZM464-23.334 295.334-192 464-362.333l54.666 56-61.667 61H487q92.333-.333 159.834-69.166 67.5-68.834 67.5-164.501 0-31-7-59.333-7-28.334-20-52l75.999-75q29.334 44.334 43.167 90.5 13.833 46.167 13.833 95.833 0 138-98 238.833-98 100.834-232 101.5h-33.001l61.334 61.334-54.666 54Z"/></svg>