<svg xmlns="http://www.w3.org/2000/svg" height="40" viewBox="0 -960 960 960" width="40"><path fill="white" d="m367.551-286.377 112.884-114.406 114.116 114.406 63.884-64.174-113.45-114.782 113.45-114.783-63.884-64.551-114.116 114.783-112.884-114.783-64.174 64.551 113.174 114.783-113.174 114.782 64.174 64.174ZM260.71-94.145q-38.798 0-67.805-28.501-29.007-28.5-29.007-67.934v-545.87h-51.406v-96.434h228v-46.957h279.03v46.957h228.189v96.434h-51.406v545.87q0 39.434-28.612 67.934-28.611 28.5-68.2 28.5H260.71ZM699.493-736.45H260.71v545.87h438.783v-545.87Zm-438.783 0v545.87-545.87Z"/></svg>