<svg xmlns="http://www.w3.org/2000/svg" height="24" viewBox="0 -960 960 960" width="24"><path fill="white" d="M316.305-259.305q23.75 0 40.375-16.625t16.625-40.375q0-23.75-16.625-40.375t-40.375-16.625q-23.75 0-40.375 16.625t-16.625 40.375q0 23.75 16.625 40.375t40.375 16.625Zm0-327.39q23.75 0 40.375-16.625t16.625-40.375q0-23.75-16.625-40.375t-40.375-16.625q-23.75 0-40.375 16.625t-16.625 40.375q0 23.75 16.625 40.375t40.375 16.625ZM480-423q23.75 0 40.375-16.625T537-480q0-23.75-16.625-40.375T480-537q-23.75 0-40.375 16.625T423-480q0 23.75 16.625 40.375T480-423Zm163.695 163.695q23.75 0 40.375-16.625t16.625-40.375q0-23.75-16.625-40.375t-40.375-16.625q-23.75 0-40.375 16.625t-16.625 40.375q0 23.75 16.625 40.375t40.375 16.625Zm0-327.39q23.75 0 40.375-16.625t16.625-40.375q0-23.75-16.625-40.375t-40.375-16.625q-23.75 0-40.375 16.625t-16.625 40.375q0 23.75 16.625 40.375t40.375 16.625ZM210.783-109.782q-42.242 0-71.622-29.379-29.379-29.38-29.379-71.622v-538.434q0-42.242 29.379-71.622 29.38-29.379 71.622-29.379h538.434q42.242 0 71.622 29.379 29.379 29.38 29.379 71.622v538.434q0 42.242-29.379 71.622-29.38 29.379-71.622 29.379H210.783Zm0-101.001h538.434v-538.434H210.783v538.434Zm0-538.434v538.434-538.434Z"/></svg>