<svg xmlns="http://www.w3.org/2000/svg" height="40" viewBox="0 -960 960 960" width="40"><path fill="white" d="M480.255-325.667q72.745 0 123.411-50.922 50.667-50.921 50.667-123.666t-50.922-123.411q-50.921-50.667-123.666-50.667t-123.411 50.922q-50.667 50.921-50.667 123.666t50.922 123.411q50.921 50.667 123.666 50.667Zm-.314-81q-38.524 0-65.899-27.433-27.375-27.434-27.375-65.959 0-38.524 27.433-65.899 27.434-27.375 65.959-27.375 38.524 0 65.899 27.433 27.375 27.434 27.375 65.959 0 38.524-27.433 65.899-27.434 27.375-65.959 27.375ZM480-172.334q-155 0-281.166-91-126.167-91-186.5-236.666 60.333-145.666 186.5-236.666 126.166-91 281.166-91t281.166 91q126.167 91 186.5 236.666-60.333 145.666-186.5 236.666-126.166 91-281.166 91ZM480-500Zm-.023 234q118.606 0 216.439-63.541T846.667-500q-52.418-106.918-150.228-170.459Q598.63-734 480.023-734q-118.606 0-216.772 63.541T112.666-500q52.419 106.918 150.562 170.459Q361.37-266 479.977-266Z"/></svg>