<svg xmlns="http://www.w3.org/2000/svg" height="40" viewBox="0 -960 960 960" width="40"><path fill="white" d="m643.565-424.32-74.551-74.84q16.029-46.551-19.623-77.623-35.652-31.072-73.999-15.999l-71.072-70.783q16.145-8.304 36.079-12.797 19.935-4.492 39.981-4.492 75.519 0 127.997 52.477 52.477 52.478 52.477 127.997 0 19.293-4.253 40.063-4.254 20.77-13.036 35.997Zm141.928 142.494-61.203-62.058q42.131-32.913 74.21-72.591 32.08-39.677 51.921-83.802-52.131-107.027-149.471-170.81T486.184-734.87q-37.186 0-74.018 6.102-36.833 6.101-58.268 14.782l-70.086-71.043q37.536-15.869 92.06-27.587 54.525-11.717 107.721-11.717 151.624 0 277.508 87.095Q886.985-650.142 946.072-500q-24.391 66.203-66.42 121.471t-94.159 96.703ZM804.855-41.61 641.479-202.884q-34.623 13.188-75.978 20.203-41.355 7.014-85.501 7.014-154.449 0-280.942-87.195Q72.566-350.058 13.928-500q18.391-52.58 53.109-102.232 34.717-49.652 81.254-94.92L28.74-815.827l57.535-58.579L860.202-100.29l-55.347 58.68ZM211.58-634.667q-32.377 29.029-59.508 63.898-27.13 34.87-42.594 70.769 51.361 108.536 150.736 171.703 99.376 63.167 225.119 63.167 22.204 0 45.465-2.689 23.261-2.688 38.754-8.587l-48.117-49.552q-8.391 2.769-19.382 4.79-10.99 2.022-22.053 2.022-75.134 0-127.994-52.193-52.86-52.194-52.86-128.661 0-10.541 1.456-20.959 1.457-10.418 4.225-20.476l-93.247-93.232Zm328.492 112.131ZM390.407-448.42Z"/></svg>