<svg xmlns="http://www.w3.org/2000/svg" height="40" viewBox="0 -960 960 960" width="40"><path fill="white" d="M259.334-259.334v-443.332h443.332v443.332H259.334ZM366-366h230v-230H366v230ZM90.667-259.334V-366h105.999v106.666H90.667Zm0-336.666v-106.666h105.999V-596H90.667ZM259.334-90.667v-105.999H366v105.999H259.334Zm0-672.667V-870H366v106.666H259.334ZM596-90.667v-105.999h106.666v105.999H596Zm0-672.667V-870h106.666v106.666H596Zm167.334 504V-366H870v106.666H763.334Zm0-336.666v-106.666H870V-596H763.334ZM481-481Z"/></svg>